<svg width="12" height="14" viewBox="0 0 12 14" fill="none" xmlns="http://www.w3.org/2000/svg">
<path d="M7.6875 13.75H0.75V0.25H7.125C7.87662 0.250045 8.61253 0.465214 9.24578 0.87009C9.87903 1.27496 10.3832 1.85263 10.6986 2.53484C11.0141 3.21705 11.1277 3.9753 11.0261 4.72001C10.9244 5.46473 10.6118 6.16479 10.125 6.7375C10.7608 7.24597 11.2233 7.93901 11.449 8.72122C11.6746 9.50344 11.6523 10.3364 11.385 11.1053C11.1177 11.8743 10.6186 12.5415 9.95644 13.0152C9.29428 13.4888 8.5016 13.7455 7.6875 13.75ZM3 11.5H7.6725C7.89411 11.5 8.11354 11.4564 8.31828 11.3715C8.52302 11.2867 8.70904 11.1624 8.86574 11.0057C9.02244 10.849 9.14674 10.663 9.23155 10.4583C9.31635 10.2535 9.36 10.0341 9.36 9.8125C9.36 9.59089 9.31635 9.37146 9.23155 9.16672C9.14674 8.96198 9.02244 8.77596 8.86574 8.61926C8.70904 8.46256 8.52302 8.33826 8.31828 8.25345C8.11354 8.16865 7.89411 8.125 7.6725 8.125H3V11.5ZM3 5.875H7.125C7.34661 5.875 7.56604 5.83135 7.77078 5.74655C7.97552 5.66174 8.16154 5.53744 8.31824 5.38074C8.47494 5.22404 8.59924 5.03802 8.68405 4.83328C8.76885 4.62854 8.8125 4.40911 8.8125 4.1875C8.8125 3.96589 8.76885 3.74646 8.68405 3.54172C8.59924 3.33698 8.47494 3.15096 8.31824 2.99426C8.16154 2.83756 7.97552 2.71326 7.77078 2.62845C7.56604 2.54365 7.34661 2.5 7.125 2.5H3V5.875Z" fill="#303030"/>
</svg>
