<svg id="Layer_1" data-name="Layer 1" xmlns="http://www.w3.org/2000/svg" width="32" height="32" viewBox="0 0 32 32"><defs><style>.cls-1{fill:#3aefbf;}.cls-2{fill:#fff;stroke:#b3b3b3;stroke-miterlimit:10;stroke-width:0.15px;}</style></defs><title>favicon</title><circle class="cls-1" cx="16" cy="16" r="16"/><path class="cls-2" d="M24.74,14a7,7,0,0,1,0,.75,1.72,1.72,0,0,1-.31.82,2.13,2.13,0,0,1-.85.67,3.76,3.76,0,0,1-1.63.28H14v1.91a4.4,4.4,0,0,0,.12,1,2.94,2.94,0,0,0,.41,1,2.32,2.32,0,0,0,.77.72,2.27,2.27,0,0,0,1.18.28,3.11,3.11,0,0,0,1.23-.19,1.91,1.91,0,0,0,.67-.47,4.27,4.27,0,0,0,.45-.6,2.46,2.46,0,0,1,1.45-1.07,5.71,5.71,0,0,1,1.63-.19,6.24,6.24,0,0,1,1,.08,2.58,2.58,0,0,1,.82.3,1.62,1.62,0,0,1,.58.61,2,2,0,0,1,.22,1A3,3,0,0,1,23.64,23a5.92,5.92,0,0,1-2.05,1.38,11.32,11.32,0,0,1-2.69.74,17.51,17.51,0,0,1-2.7.22A12.49,12.49,0,0,1,13,25a7.37,7.37,0,0,1-2.64-1.28,6.22,6.22,0,0,1-1.83-2.29,8,8,0,0,1-.68-3.47V13.23A10,10,0,0,1,8.34,10,6.88,6.88,0,0,1,9.51,7.83a5.34,5.34,0,0,1,1.62-1.37,7.89,7.89,0,0,1,1.81-.73,9.88,9.88,0,0,1,1.75-.3c.55,0,1-.06,1.43-.06a14.24,14.24,0,0,1,3.44.36A8.7,8.7,0,0,1,22,6.67,5,5,0,0,1,23.46,8a5.4,5.4,0,0,1,.84,1.56,6.79,6.79,0,0,1,.36,1.64c.05.55.08,1.07.08,1.55ZM14,13.51h5c0-.62,0-1.18-.05-1.66a3.09,3.09,0,0,0-.3-1.23,1.62,1.62,0,0,0-.77-.76,3.6,3.6,0,0,0-1.51-.26A2.7,2.7,0,0,0,15,9.86a1.87,1.87,0,0,0-.71.65,2.13,2.13,0,0,0-.3.83,5.77,5.77,0,0,0-.06.78Z"/></svg>