<svg id="Layer_1" data-name="Layer 1" xmlns="http://www.w3.org/2000/svg" width="100" height="23.44" viewBox="0 0 100 23.44"><defs><style>.cls-1{fill:#fff;}.cls-2{fill:#3aefbf;}</style></defs><title>logo-white</title><path class="cls-1" d="M14.05,13.82c0,.18,0,.39,0,.62a1.43,1.43,0,0,1-.26.69,1.72,1.72,0,0,1-.71.55,3.1,3.1,0,0,1-1.36.24H5.06v1.6a3.54,3.54,0,0,0,.1.83,2.58,2.58,0,0,0,.34.8,2,2,0,0,0,.64.6,2,2,0,0,0,1,.23,2.53,2.53,0,0,0,1-.16,1.52,1.52,0,0,0,.57-.39,3.08,3.08,0,0,0,.37-.5,2.26,2.26,0,0,1,.44-.5A2.51,2.51,0,0,1,10.3,18a4.47,4.47,0,0,1,1.36-.16,4.25,4.25,0,0,1,.8.07,1.89,1.89,0,0,1,.69.25,1.41,1.41,0,0,1,.49.51,1.69,1.69,0,0,1,.18.84,2.53,2.53,0,0,1-.68,1.8,4.92,4.92,0,0,1-1.72,1.16,9.7,9.7,0,0,1-2.24.62,15.21,15.21,0,0,1-2.25.18A10.64,10.64,0,0,1,4.3,23a6.15,6.15,0,0,1-2.21-1.07A5,5,0,0,1,.57,20,6.63,6.63,0,0,1,0,17.08V13.19a8.33,8.33,0,0,1,.37-2.68,5.83,5.83,0,0,1,1-1.84A4.83,4.83,0,0,1,2.7,7.53a6.6,6.6,0,0,1,1.51-.6,7.33,7.33,0,0,1,1.46-.25c.46,0,.86,0,1.19,0a11.87,11.87,0,0,1,2.87.3,7.24,7.24,0,0,1,2,.78A4.34,4.34,0,0,1,13,8.82a5.21,5.21,0,0,1,.7,1.31A6.59,6.59,0,0,1,14,11.5q.06.69.06,1.29Zm-9-.4H9.22c0-.52,0-1,0-1.39a2.63,2.63,0,0,0-.25-1,1.39,1.39,0,0,0-.65-.64A3,3,0,0,0,7,10.16,2.3,2.3,0,0,0,6,10.37a1.64,1.64,0,0,0-.59.54,1.79,1.79,0,0,0-.25.7,5.42,5.42,0,0,0-.05.64Z"/><path class="cls-1" d="M31.54,19.51a10.62,10.62,0,0,1-.09,1.4,3.34,3.34,0,0,1-.36,1.22,2.22,2.22,0,0,1-.78.86,2.6,2.6,0,0,1-1.37.32A2.5,2.5,0,0,1,27.59,23a2.28,2.28,0,0,1-.77-.86,3.77,3.77,0,0,1-.34-1.22,12.74,12.74,0,0,1-.07-1.4V13c0-.31,0-.62,0-.92a2.61,2.61,0,0,0-.2-.79,1.32,1.32,0,0,0-.44-.55,1.4,1.4,0,0,0-.79-.2,1.44,1.44,0,0,0-1.1.45,3.24,3.24,0,0,0-.65,1.23,8.2,8.2,0,0,0-.33,1.84c-.06.7-.08,1.46-.08,2.27v3.16a10.62,10.62,0,0,1-.09,1.4,3.54,3.54,0,0,1-.35,1.22,2.33,2.33,0,0,1-.79.86,2.57,2.57,0,0,1-1.37.32A2.5,2.5,0,0,1,18.83,23a2.17,2.17,0,0,1-.76-.86,3.54,3.54,0,0,1-.35-1.22,12.74,12.74,0,0,1-.07-1.4V10.42c0-.47,0-.94.05-1.39a3.21,3.21,0,0,1,.3-1.2A2.07,2.07,0,0,1,18.76,7a2.67,2.67,0,0,1,1.42-.32A2.74,2.74,0,0,1,21.61,7a2.14,2.14,0,0,1,.78.74,2.36,2.36,0,0,1,.32.91,7.27,7.27,0,0,1,.07.84,4.53,4.53,0,0,1,.41-1A3.69,3.69,0,0,1,25,6.92a3.69,3.69,0,0,1,1.43-.26,5.84,5.84,0,0,1,1.83.3,4.29,4.29,0,0,1,1.65,1,5.19,5.19,0,0,1,1.19,1.83,7.63,7.63,0,0,1,.46,2.8Z"/><path class="cls-1" d="M37.76,6.66V3.73a12.3,12.3,0,0,1,.08-1.37,3.43,3.43,0,0,1,.34-1.19,2.22,2.22,0,0,1,.76-.85A2.54,2.54,0,0,1,40.29,0a2.51,2.51,0,0,1,1.34.32,2.12,2.12,0,0,1,.75.85,3.67,3.67,0,0,1,.34,1.19,12.32,12.32,0,0,1,.07,1.37V6.66h1.37a8.38,8.38,0,0,1,.86,0,2,2,0,0,1,.78.24,1.6,1.6,0,0,1,.55.6,2.61,2.61,0,0,1,.2,1.12,2.51,2.51,0,0,1-.2,1.08,1.46,1.46,0,0,1-.55.6,2.18,2.18,0,0,1-.78.26,6.33,6.33,0,0,1-.86.06H42.79v5.82c0,.23,0,.46,0,.71a1.75,1.75,0,0,0,.17.69,1.35,1.35,0,0,0,.45.53,1.47,1.47,0,0,0,.85.2,4.88,4.88,0,0,1,1,.1A1.57,1.57,0,0,1,46,19a1.35,1.35,0,0,1,.41.65,3.55,3.55,0,0,1,.13,1.07,2.11,2.11,0,0,1-.3,1.14,2.45,2.45,0,0,1-.83.8,3.81,3.81,0,0,1-1.2.47,6.6,6.6,0,0,1-1.43.15,7,7,0,0,1-2-.25,3.93,3.93,0,0,1-1.4-.71,3.25,3.25,0,0,1-.88-1.1A5.42,5.42,0,0,1,38,19.81a12.5,12.5,0,0,1-.2-1.72c0-.62,0-1.26,0-1.94V10.66h-.93A6.22,6.22,0,0,1,36,10.6a2.14,2.14,0,0,1-.76-.26,1.44,1.44,0,0,1-.54-.6,2.37,2.37,0,0,1-.2-1.08,2.47,2.47,0,0,1,.2-1.12,1.58,1.58,0,0,1,.54-.6A1.94,1.94,0,0,1,36,6.7a8.25,8.25,0,0,1,.86,0Z"/><path class="cls-1" d="M49.25,12.92a7.12,7.12,0,0,1,.42-2.6,5.48,5.48,0,0,1,1.07-1.78,4.84,4.84,0,0,1,1.47-1.11,7.37,7.37,0,0,1,1.59-.6,7.48,7.48,0,0,1,1.45-.25c.45,0,.8,0,1.06,0s.61,0,1,0a7.08,7.08,0,0,1,1.42.25,6.93,6.93,0,0,1,1.53.6,4.46,4.46,0,0,1,1.4,1.11,5.79,5.79,0,0,1,1,1.78,7.6,7.6,0,0,1,.4,2.6v4.13a7.6,7.6,0,0,1-.4,2.6,5.79,5.79,0,0,1-1,1.78,4.46,4.46,0,0,1-1.4,1.11,6.93,6.93,0,0,1-1.53.6,7.08,7.08,0,0,1-1.42.25c-.44,0-.79.05-1,.05s-.61,0-1.06-.05a7.48,7.48,0,0,1-1.45-.25,7.37,7.37,0,0,1-1.59-.6,4.84,4.84,0,0,1-1.47-1.11,5.48,5.48,0,0,1-1.07-1.78,7.12,7.12,0,0,1-.42-2.6Zm5.13,5.3a1.72,1.72,0,0,0,.81,1.44,2,2,0,0,0,1.12.25,1.88,1.88,0,0,0,1.07-.25,1.76,1.76,0,0,0,.56-.6,2,2,0,0,0,.24-.84v-6a2.5,2.5,0,0,0-.24-.92,2,2,0,0,0-.56-.62,1.66,1.66,0,0,0-1.07-.29,1.8,1.8,0,0,0-1.12.29,2,2,0,0,0-.58.62,2.16,2.16,0,0,0-.23.92Z"/><path class="cls-1" d="M72.16,20.55a2.78,2.78,0,0,1-.71,2.09,2.83,2.83,0,0,1-2,.67,2.88,2.88,0,0,1-2.05-.67,2.78,2.78,0,0,1-.71-2.09,2.73,2.73,0,0,1,.71-2.09,3,3,0,0,1,2.05-.64,2.89,2.89,0,0,1,2.06.64A2.81,2.81,0,0,1,72.16,20.55Z"/><path class="cls-2" d="M77,10.39A12.32,12.32,0,0,1,77,9a3.67,3.67,0,0,1,.34-1.19A2.25,2.25,0,0,1,78.14,7a2.5,2.5,0,0,1,1.35-.32A2.54,2.54,0,0,1,80.84,7a2.22,2.22,0,0,1,.76.85A3.43,3.43,0,0,1,81.94,9,12.3,12.3,0,0,1,82,10.39v9.19A12.3,12.3,0,0,1,81.94,21a3.43,3.43,0,0,1-.34,1.2,2.12,2.12,0,0,1-.76.84,2.54,2.54,0,0,1-1.35.32A2.5,2.5,0,0,1,78.14,23a2.15,2.15,0,0,1-.77-.84A3.65,3.65,0,0,1,77,21,12.32,12.32,0,0,1,77,19.58Zm5.09-7.86a2.51,2.51,0,0,1-.66,1.91,2.67,2.67,0,0,1-1.87.62,2.63,2.63,0,0,1-1.86-.62A2.48,2.48,0,0,1,77,2.53,2.46,2.46,0,0,1,77.66.6a3.26,3.26,0,0,1,3.77,0A2.6,2.6,0,0,1,82.05,2.53Z"/><path class="cls-2" d="M86.11,12.92a7.12,7.12,0,0,1,.42-2.6A5.86,5.86,0,0,1,87.6,8.54a4.84,4.84,0,0,1,1.47-1.11,7.78,7.78,0,0,1,1.59-.6,7.57,7.57,0,0,1,1.46-.25c.45,0,.8,0,1,0s.61,0,1,0a7.17,7.17,0,0,1,1.43.25,7.33,7.33,0,0,1,1.53.6,4.7,4.7,0,0,1,1.4,1.11,6,6,0,0,1,1,1.78,7.36,7.36,0,0,1,.4,2.6v4.13a7.36,7.36,0,0,1-.4,2.6,6,6,0,0,1-1,1.78,4.7,4.7,0,0,1-1.4,1.11,7.33,7.33,0,0,1-1.53.6,7.17,7.17,0,0,1-1.43.25c-.44,0-.79.05-1,.05s-.6,0-1-.05a7.57,7.57,0,0,1-1.46-.25,7.78,7.78,0,0,1-1.59-.6,4.84,4.84,0,0,1-1.47-1.11,5.86,5.86,0,0,1-1.07-1.78,7.12,7.12,0,0,1-.42-2.6Zm5.13,5.3a1.65,1.65,0,0,0,.24.84,1.7,1.7,0,0,0,.57.6,2,2,0,0,0,1.12.25,1.92,1.92,0,0,0,1.08-.25,1.86,1.86,0,0,0,.56-.6,2,2,0,0,0,.23-.84v-6a2.49,2.49,0,0,0-.23-.92,2.15,2.15,0,0,0-.56-.62,1.69,1.69,0,0,0-1.08-.29,1.8,1.8,0,0,0-1.12.29,1.93,1.93,0,0,0-.57.62,2,2,0,0,0-.24.92Z"/></svg>