<svg width="18" height="18" viewBox="0 0 18 18" fill="none" xmlns="http://www.w3.org/2000/svg">
<path d="M0 16.5H18V18H0V16.5ZM9 14.25C7.60761 14.25 6.27226 13.6969 5.28769 12.7123C4.30312 11.7277 3.75 10.3924 3.75 9V0.75H5.25V9C5.25 9.99456 5.64509 10.9484 6.34835 11.6517C7.05161 12.3549 8.00544 12.75 9 12.75C9.99456 12.75 10.9484 12.3549 11.6517 11.6517C12.3549 10.9484 12.75 9.99456 12.75 9V0.75H14.25V9C14.25 10.3924 13.6969 11.7277 12.7123 12.7123C11.7277 13.6969 10.3924 14.25 9 14.25Z" fill="#303030"/>
</svg>
